<svg width="24" height="20" viewBox="0 0 24 20" fill="none" xmlns="http://www.w3.org/2000/svg">
<path d="M12.0859 6.65782C12.0859 7.864 11.1081 8.8418 9.90196 8.8418H6.07999C4.87381 8.8418 3.89601 7.864 3.89601 6.65782V2.83585C3.89601 1.62967 4.87381 0.651872 6.07999 0.651872H9.90196C11.1081 0.651872 12.0859 1.62967 12.0859 2.83585V6.65782Z" fill="#04091F"/>
<path d="M8.19141 17.8141C8.19141 19.0202 7.21361 19.998 6.00743 19.998H2.18546C0.979282 19.998 0.00148106 19.0202 0.00148106 17.8141V13.9921C0.00148106 12.7859 0.979282 11.8081 2.18546 11.8081H6.00743C7.21361 11.8081 8.19141 12.7859 8.19141 13.9921V17.8141Z" fill="#811FF1"/>
<path d="M19.6367 17.1598C19.6367 18.3659 18.6589 19.3438 17.4527 19.3438H13.6308C12.4246 19.3438 11.4468 18.3659 11.4468 17.1598V13.3378C11.4468 12.1316 12.4246 11.1538 13.6308 11.1538H17.4527C18.6589 11.1538 19.6367 12.1316 19.6367 13.3378V17.1598Z" fill="#04091F"/>
<path d="M23.5312 6.00547C23.5312 7.21165 22.5534 8.18945 21.3473 8.18945H17.5253C16.3191 8.18945 15.3413 7.21165 15.3413 6.00547V2.18351C15.3413 0.977329 16.3191 -0.000472069 17.5253 -0.000472069H21.3473C22.5534 -0.000472069 23.5312 0.977329 23.5312 2.18351V6.00547Z" fill="#04091F"/>
</svg>
